<?xml version="1.0" standalone="no"?>
<!DOCTYPE svg PUBLIC "-//W3C//DTD SVG 20010904//EN"
 "http://www.w3.org/TR/2001/REC-SVG-20010904/DTD/svg10.dtd">
<svg version="1.0" xmlns="http://www.w3.org/2000/svg"
 width="128.000000pt" height="128.000000pt" viewBox="0 0 128.000000 128.000000"
 preserveAspectRatio="xMidYMid meet">
<metadata>
Created by potrace 1.14, written by Peter Selinger 2001-2017
</metadata>
<g transform="translate(0.000000,128.000000) scale(0.100000,-0.100000)"
fill="#000000" stroke="none">
<path d="M651 1247 c-6 -8 -8 -17 -4 -20 3 -4 -1 -7 -11 -7 -9 0 -15 4 -12 9
3 4 -6 6 -19 3 -14 -2 -23 -7 -21 -11 3 -4 -5 -8 -17 -8 -17 -2 -18 0 -7 7 11
7 10 9 -8 7 -12 -1 -21 -6 -18 -12 2 -6 -5 -12 -15 -12 -11 -1 -17 2 -15 6 3
4 -1 8 -9 8 -13 0 -13 -2 -1 -16 13 -15 11 -16 -19 -15 -27 2 -32 -1 -28 -14
5 -11 2 -14 -11 -9 -12 5 -16 2 -14 -11 2 -9 -3 -16 -9 -15 -12 3 -17 -10 -14
-30 1 -4 -8 -3 -20 4 -19 10 -21 9 -16 -5 3 -8 1 -18 -5 -22 -7 -5 -8 -2 -3 6
5 9 4 11 -4 6 -7 -4 -10 -13 -8 -19 2 -7 -3 -18 -12 -25 -10 -8 -10 -11 -2 -6
10 5 12 3 6 -6 -6 -10 -11 -9 -22 5 -16 23 -17 12 -1 -18 10 -20 10 -21 -6 -8
-14 12 -16 12 -10 -4 6 -14 4 -16 -6 -10 -8 5 -11 4 -6 -3 3 -6 2 -13 -3 -16
-11 -7 -9 -66 3 -86 9 -13 8 -13 -7 -1 -9 7 -14 18 -10 25 3 6 2 8 -2 3 -12
-11 -14 -47 -2 -40 6 4 8 0 4 -9 -3 -9 0 -21 6 -28 10 -10 7 -10 -13 0 -20 10
-23 10 -13 0 6 -7 9 -20 5 -29 -5 -14 -4 -14 13 -1 19 15 19 15 1 -14 -15 -24
-16 -28 -3 -23 12 4 14 2 10 -10 -5 -12 -3 -14 7 -8 9 5 11 4 6 -4 -6 -9 -11
-9 -21 -1 -10 8 -13 8 -11 -2 6 -26 18 -48 28 -48 6 0 5 6 -2 15 -7 9 -8 15
-2 15 18 0 21 -29 4 -39 -16 -10 -16 -10 0 -11 9 0 20 -5 24 -12 4 -7 3 -8 -4
-4 -7 4 -12 1 -12 -9 0 -8 10 -20 22 -25 18 -7 19 -9 6 -9 -10 -1 -18 -5 -18
-11 0 -5 6 -7 14 -4 8 3 17 0 22 -7 5 -8 3 -10 -6 -4 -9 5 -11 4 -6 -4 4 -6
14 -10 21 -9 8 2 13 0 12 -4 -1 -3 8 -18 21 -31 16 -17 20 -27 12 -32 -17 -11
8 -35 28 -28 15 6 15 5 3 -10 -9 -12 -10 -17 -2 -17 7 0 10 -4 7 -9 -3 -5 6
-16 20 -26 21 -13 23 -19 13 -31 -10 -12 -14 -12 -21 -2 -7 10 -9 10 -5 -2 2
-8 9 -15 15 -15 18 0 24 -12 24 -49 0 -20 3 -34 7 -32 4 3 8 -6 9 -20 1 -17
-3 -24 -16 -24 -14 0 -15 -2 -2 -9 8 -6 18 -7 22 -5 4 3 5 -2 2 -11 -4 -8 -1
-22 6 -30 10 -12 10 -15 -1 -15 -8 0 -5 -8 9 -23 18 -19 19 -25 7 -40 -8 -12
-15 -14 -20 -7 -3 5 -11 7 -17 4 -7 -5 -8 -2 -3 6 6 9 4 11 -5 5 -9 -6 -11 -4
-5 4 5 9 10 10 18 2 6 -6 16 -11 21 -11 6 1 0 10 -13 20 -14 12 -18 20 -10 20
12 0 12 2 0 9 -11 7 -11 9 0 14 8 3 4 4 -8 4 -22 -1 -34 -17 -12 -17 5 0 7 -5
3 -12 -5 -7 -11 -5 -21 7 -7 11 -13 14 -13 9 0 -6 3 -14 7 -18 11 -11 12 -36
2 -36 -6 0 -5 -8 1 -20 7 -12 16 -18 23 -13 30 18 66 -2 52 -29 -4 -7 0 -5 8
4 17 21 47 24 47 5 0 -7 -6 -19 -13 -26 -10 -11 -9 -12 1 -7 8 5 21 -2 33 -18
18 -23 28 -26 79 -26 48 0 63 4 82 23 27 25 29 34 32 101 1 32 6 51 15 54 9 3
11 0 6 -8 -6 -9 -4 -11 6 -5 8 5 5 -2 -6 -15 -17 -20 -17 -22 -3 -17 12 4 15
2 11 -8 -3 -8 -8 -13 -12 -11 -4 3 -7 -4 -7 -15 0 -18 2 -18 12 -5 6 9 14 13
18 9 4 -4 4 1 0 12 -7 18 -6 18 9 6 10 -7 17 -9 17 -3 0 6 -5 12 -11 14 -14 5
-18 42 -5 50 8 5 7 8 -2 8 -7 0 -11 4 -7 9 3 5 -4 13 -16 16 -17 6 -19 9 -8
16 8 5 10 9 4 9 -5 0 -10 11 -10 24 0 13 4 22 9 18 5 -3 6 2 3 12 -5 14 -3 16
12 11 11 -3 22 -1 26 4 4 7 -1 8 -11 4 -13 -5 -15 -3 -9 7 5 8 4 11 -3 6 -6
-3 -14 -1 -18 5 -5 8 -3 9 6 4 10 -6 12 -4 7 7 -3 9 0 21 6 27 8 8 7 11 -3 11
-9 0 -7 5 5 14 11 8 23 12 27 10 14 -9 8 4 -9 22 -17 17 -17 17 3 12 13 -3 21
-1 21 8 0 7 -4 11 -8 9 -4 -3 -10 3 -13 12 -4 10 -4 14 0 10 4 -4 13 1 21 11
12 16 13 16 7 -3 -5 -17 -4 -17 5 -4 6 9 9 25 6 37 -3 16 1 20 20 17 21 -2 22
1 14 22 -6 16 -5 22 1 18 6 -3 10 -1 10 5 0 6 5 8 10 5 6 -3 10 -1 10 5 0 6 4
9 9 5 5 -3 13 0 17 6 4 7 3 9 -4 5 -6 -4 -10 1 -9 13 0 11 6 17 14 14 7 -3 13
2 13 12 0 10 4 13 13 9 7 -5 6 -1 -2 10 -13 16 -13 17 1 14 9 -1 17 2 17 7 0
6 -8 9 -17 7 -15 -2 -15 -1 2 12 10 9 15 20 10 27 -4 8 -3 10 4 5 15 -9 15 -1
1 27 -7 12 -8 19 -4 15 9 -9 35 9 35 23 0 5 -7 9 -15 9 -8 0 -15 5 -15 11 0 5
3 8 8 6 4 -3 13 2 21 10 12 13 11 14 -10 8 -23 -7 -24 -7 -4 9 20 15 20 15 1
16 -20 0 -20 0 0 16 10 8 13 13 7 9 -8 -4 -13 0 -13 10 0 10 5 13 12 9 7 -4 8
-3 4 5 -4 6 -13 9 -19 5 -7 -3 -3 2 8 11 20 17 20 17 -4 10 -15 -5 -21 -3 -17
3 3 6 3 12 -1 15 -5 2 -2 2 5 1 22 -6 12 13 -14 24 -14 7 -23 16 -20 21 4 5 0
12 -6 15 -7 3 -2 4 12 1 14 -3 19 -2 13 1 -7 3 -13 12 -13 20 0 8 -5 14 -11
14 -5 0 -7 -5 -4 -11 4 -6 -3 -5 -14 3 -22 13 -22 13 -1 16 24 4 27 20 3 18
-10 0 -17 5 -16 12 2 6 -4 12 -13 12 -9 0 -12 -5 -8 -12 4 -6 3 -8 -4 -4 -6 3
-9 15 -7 26 2 12 -4 24 -15 30 -29 16 -38 11 -10 -5 29 -16 19 -20 -11 -4 -11
5 -16 15 -13 21 5 7 2 9 -9 5 -9 -3 -19 -2 -22 4 -4 5 -11 6 -17 3 -7 -4 -8
-2 -4 5 6 9 11 9 22 0 21 -17 17 -1 -7 24 -15 17 -19 18 -14 5 5 -13 2 -18 -9
-18 -9 0 -16 6 -16 14 0 8 -5 18 -12 22 -6 4 -8 3 -5 -3 4 -6 -2 -13 -13 -16
-11 -3 -23 0 -27 5 -3 6 -1 8 5 4 6 -3 13 -3 16 2 7 12 -27 11 -42 -1 -11 -8
-13 -7 -10 5 1 9 -1 16 -7 15 -5 -1 -9 -5 -8 -9 1 -3 -4 -9 -13 -12 -8 -3 -12
-2 -9 4 3 6 1 10 -6 10 -8 0 -8 4 1 15 7 8 10 15 7 15 -2 0 -10 -6 -16 -13z
m-347 -265 c-6 -4 -10 -15 -8 -25 1 -9 -1 -15 -6 -12 -7 4 -7 22 -1 43 1 1 7
2 14 2 8 0 9 -3 1 -8z m111 -462 c-3 -5 -12 -10 -18 -10 -7 0 -6 4 3 10 19 12
23 12 15 0z m35 -60 c0 -5 -5 -10 -11 -10 -5 0 -7 5 -4 10 3 6 8 10 11 10 2 0
4 -4 4 -10z m363 -264 c4 -10 1 -13 -9 -9 -7 3 -14 9 -14 14 0 14 17 10 23 -5z
m-348 -75 c3 -5 1 -12 -5 -16 -5 -3 -10 1 -10 9 0 18 6 21 15 7z m73 -10 c-7
-11 -16 -18 -20 -15 -4 3 -2 11 5 19 18 21 29 18 15 -4z m186 -21 c-5 12 -4
13 6 3 11 -10 10 -17 -4 -37 -28 -43 -95 -29 -102 21 -2 11 1 12 12 2 10 -8
14 -8 14 0 0 6 5 11 11 11 5 0 7 -6 4 -12 -4 -7 1 -4 9 6 9 11 16 14 16 8 0
-7 4 -12 10 -12 5 0 7 8 3 18 -5 14 -3 14 11 -3 10 -11 14 -13 10 -5z"/>
<path d="M680 60 c-9 -6 -10 -10 -3 -10 6 0 15 5 18 10 8 12 4 12 -15 0z"/>
<path d="M990 1006 c0 -2 7 -6 15 -10 8 -3 15 -1 15 4 0 6 -7 10 -15 10 -8 0
-15 -2 -15 -4z"/>
<path d="M345 579 c-4 -6 -5 -12 -2 -15 2 -3 7 2 10 11 7 17 1 20 -8 4z"/>
<path d="M930 559 c0 -5 5 -7 10 -4 6 3 10 8 10 11 0 2 -4 4 -10 4 -5 0 -10
-5 -10 -11z"/>
<path d="M354 549 c-4 -7 -3 -9 4 -5 5 3 12 0 15 -6 2 -7 7 -10 11 -7 4 3 0
12 -8 18 -11 9 -16 9 -22 0z"/>
<path d="M430 426 c0 -2 7 -7 16 -10 8 -3 12 -2 9 4 -6 10 -25 14 -25 6z"/>
<path d="M440 360 c-13 -8 -12 -10 3 -10 9 0 17 5 17 10 0 12 -1 12 -20 0z"/>
<path d="M825 361 c-6 -11 13 -26 22 -17 4 3 0 6 -8 6 -11 0 -11 2 1 10 9 6
10 10 3 10 -6 0 -14 -4 -18 -9z"/>
<path d="M457 285 c3 -8 9 -12 14 -9 12 7 11 11 -5 17 -10 4 -13 1 -9 -8z"/>
<path d="M833 275 c0 -8 4 -12 9 -9 5 3 6 10 3 15 -9 13 -12 11 -12 -6z"/>
<path d="M846 174 c-7 -19 12 -47 25 -38 5 3 9 13 8 22 0 14 -2 14 -8 -2 -5
-12 -10 -16 -14 -9 -4 6 -4 18 -1 27 3 9 4 16 1 16 -3 0 -8 -7 -11 -16z"/>
<path d="M375 160 c6 -30 16 -40 12 -12 -2 12 -6 24 -10 28 -3 4 -4 -4 -2 -16z"/>
<path d="M416 156 c6 -15 4 -17 -6 -11 -9 6 -11 4 -5 -4 5 -9 10 -10 18 -2 8
8 7 14 -2 24 -10 10 -11 8 -5 -7z"/>
<path d="M490 166 c0 -2 8 -10 18 -17 15 -13 16 -12 3 4 -13 16 -21 21 -21 13z"/>
<path d="M415 100 c3 -5 8 -10 11 -10 2 0 4 5 4 10 0 6 -5 10 -11 10 -5 0 -7
-4 -4 -10z"/>
<path d="M470 80 c0 -5 7 -7 15 -4 8 4 15 8 15 10 0 2 -7 4 -15 4 -8 0 -15 -4
-15 -10z"/>
</g>
</svg>
